<?xml version="1.0" encoding="utf-8"?>
<!-- Generator: Adobe Illustrator 19.1.0, SVG Export Plug-In . SVG Version: 6.00 Build 0)  -->
<svg version="1.1" id="Layer_1" xmlns="http://www.w3.org/2000/svg" xmlns:xlink="http://www.w3.org/1999/xlink" x="0px" y="0px"
	 viewBox="-660 -198 160 160" style="enable-background:new -660 -198 160 160;" xml:space="preserve">
<g>
	<path d="M-516.9-131.8h-6.8c0.2-0.2,0.3-0.5,0.3-0.8c0-1.8-1.6-3.2-3.7-3.2h-2.5c-0.1-2.8-1.9-5.2-4.5-6l4-7.9
		c1.9-0.1,3.5-1.7,3.5-3.6c0-2-1.6-3.6-3.6-3.6c-0.3,0-0.7,0.1-1,0.2l-9.2-7.6c-0.6-0.5-1.4-0.4-1.9,0.2c-0.5,0.6-0.4,1.4,0.2,1.9
		l8.7,7.2c-0.3,0.5-0.5,1.1-0.5,1.8c0,1.1,0.5,2.1,1.3,2.7l-4.3,8.6c-3.1,0.4-5.5,3-5.6,6.2h-2.5c-2,0-3.7,1.5-3.7,3.2
		c0,0.3,0.1,0.5,0.3,0.7h-79.8v-9.3c0-0.7-0.6-1.3-1.3-1.3h-0.1l1.6-2.8c0.4-0.6,0.1-1.4-0.5-1.8c-0.6-0.4-1.4-0.1-1.8,0.5l-1.8,3.2
		v-5.7c0-0.7-0.6-1.3-1.3-1.3s-1.3,0.6-1.3,1.3v6.6h0c0-0.2,0-0.3-0.1-0.5l-1.3-3.3c-0.3-0.7-1-1-1.7-0.7c-0.7,0.3-1,1-0.7,1.7
		l1.1,2.8c-0.7,0.1-1.2,0.6-1.2,1.3v9.3h-4c-0.7,0-1.3,0.6-1.3,1.3v63.7c0,0.7,0.6,1.3,1.3,1.3s1.3-0.6,1.3-1.3v-57.1h81v53.1v1.3
		v2.7c0,0.7,0.6,1.3,1.3,1.3c0.7,0,1.3-0.6,1.3-1.3v-1.3h39.8v1.3c0,0.7,0.6,1.3,1.3,1.3c0.7,0,1.3-0.6,1.3-1.3v-2.7v-55.8v-5.3
		C-515.6-131.2-516.2-131.8-516.9-131.8z M-558.1-106.6h39.8v17.3h-39.8V-106.6z M-529.4-153.4c0,0.5-0.4,1-1,1s-1-0.4-1-1
		c0-0.5,0.4-1,1-1S-529.4-153.9-529.4-153.4z M-536.2-139.5c2.1,0,3.7,1.6,3.8,3.7h-7.7C-539.9-137.9-538.2-139.5-536.2-139.5z
		 M-546.2-132.6c0-0.2,0.4-0.6,1.1-0.6h18c0.6,0,1.1,0.3,1.1,0.5c0,0.3,0.1,0.6,0.3,0.8h-20.7C-546.3-132-546.2-132.3-546.2-132.6z
		 M-636.4-139.8h5.3v8h-5.3V-139.8z M-641.7-129.2h4h8h111.5v2.7h-41.2h-82.3V-129.2z M-518.3-123.9v14.6h-39.8v-14.6H-518.3z
		 M-558.1-70.8v-15.9h39.8v15.9H-558.1z"/>
	<path d="M-542.2-114.6h9.3c0.7,0,1.3-0.6,1.3-1.3s-0.6-1.3-1.3-1.3h-9.3c-0.7,0-1.3,0.6-1.3,1.3S-542.9-114.6-542.2-114.6z"/>
	<path d="M-531.5-98.6h-10.6c-0.7,0-1.3,0.6-1.3,1.3s0.6,1.3,1.3,1.3h10.6c0.7,0,1.3-0.6,1.3-1.3S-530.8-98.6-531.5-98.6z"/>
	<path d="M-531.5-80.1h-10.6c-0.7,0-1.3,0.6-1.3,1.3s0.6,1.3,1.3,1.3h10.6c0.7,0,1.3-0.6,1.3-1.3S-530.8-80.1-531.5-80.1z"/>
	<path d="M-559.6-160.3l14.1,9.3c0.2,0.1,0.5,0.2,0.7,0.2c0.1,0,0.2,0,0.3,0c0.3-0.1,0.6-0.3,0.8-0.6c2.4-3.7,2.4-8.7,0.1-12.3
		l1.9-2.5c0.2-0.3,0.3-0.6,0.3-1s-0.2-0.7-0.5-0.9l-3.2-2.3c-0.6-0.4-1.4-0.3-1.8,0.2l-2.5,3c-0.4-0.1-0.8-0.1-1.2-0.1
		c-3.6,0-7.3,2-9.3,5c-0.2,0.3-0.3,0.7-0.2,1C-560.1-160.8-559.9-160.5-559.6-160.3z M-550.6-164.5c0.5,0,1,0.1,1.5,0.2
		c0.5,0.1,1,0,1.3-0.4l2.2-2.6l1.1,0.8l-1.7,2.2c-0.4,0.5-0.4,1.2,0,1.7c2,2.3,2.3,5.9,1,8.8l-11.7-7.7
		C-555.3-163.4-552.9-164.5-550.6-164.5z"/>
</g>
</svg>
