<?xml version="1.0" encoding="utf-8"?>
<!-- Generator: Adobe Illustrator 19.1.0, SVG Export Plug-In . SVG Version: 6.00 Build 0)  -->
<svg version="1.1" id="Layer_1" xmlns="http://www.w3.org/2000/svg" xmlns:xlink="http://www.w3.org/1999/xlink" x="0px" y="0px"
	 viewBox="-1079 -198 160 160" style="enable-background:new -1079 -198 160 160;" xml:space="preserve">
<g>
	<path d="M-959.9-131.2h-7.5l0-34.7c0-7.3-5.9-13.2-13.2-13.2h-36.8c-7.3,0-13.2,5.9-13.2,13.2v34.7h-7.5c-1.9,0-3.5,1.6-3.5,3.5
		v0.9c0,1.9,1.6,3.5,3.5,3.5h3.4c0,4.4,0.1,14,0.1,19.5c0,2.2,0.6,3.9,1.8,5c1.2,1.1,2.7,1.3,3.3,1.3c0.1,0,0.1,0,0.2,0h2.2
		c0,0,0,0,0,0h24.2v23.2l-2.6,0l-25.7,2.3c-1.9,0-3.4,1.6-3.4,3.5c0,0.9,0.4,1.8,1,2.4c-0.5,0.6-0.9,1.4-0.9,2.3v3.4
		c0,1.9,1.6,3.5,3.5,3.5h3.4c1.9,0,3.5-1.6,3.5-3.5v-3.4c0-0.6-0.2-1.2-0.5-1.8l19.1-1.7h1.6c0.2,0.4,0.4,0.8,0.7,1.2
		c-0.6,0.6-0.9,1.4-0.9,2.3v3.4c0,1.9,1.6,3.5,3.5,3.5h3.4c1.9,0,3.5-1.6,3.5-3.5v-3.4c0-0.9-0.3-1.7-0.9-2.3
		c0.3-0.3,0.5-0.7,0.7-1.2h1.7l19.1,1.7c-0.3,0.5-0.5,1.1-0.5,1.8v3.4c0,1.9,1.6,3.5,3.5,3.5h3.4c1.9,0,3.5-1.6,3.5-3.5v-3.4
		c0-0.9-0.3-1.7-0.9-2.3c0.6-0.6,0.9-1.4,0.9-2.4c0-1.9-1.5-3.5-3.4-3.5l-25.5-2.3l-2.8,0v-23.2h24.2c0,0,0,0,0,0h2.2
		c0,0,0.1,0,0.2,0c0.6,0,2-0.1,3.3-1.3c1.2-1.1,1.8-2.8,1.8-5c0-5.5,0.1-15.2,0.1-19.5h3.4c1.9,0,3.5-1.6,3.5-3.5v-0.9
		C-956.4-129.6-958-131.2-959.9-131.2z M-1026.5-60.4c0,0.6-0.5,1.2-1.2,1.2h-3.4c-0.6,0-1.2-0.5-1.2-1.2v-3.4
		c0-0.6,0.5-1.2,1.2-1.2h3.4c0.6,0,1.2,0.5,1.2,1.2V-60.4z M-1004.2-70.8v1.2h-1.4l-25.6,2.3c-0.6,0-1.1-0.5-1.1-1.2
		c0-0.6,0.5-1.2,1.2-1.2l25.7-2.3h1.5C-1004.1-71.6-1004.2-71.2-1004.2-70.8z M-965.6-60.4c0,0.6-0.5,1.2-1.2,1.2h-3.4
		c-0.6,0-1.2-0.5-1.2-1.2v-3.4c0-0.6,0.5-1.2,1.2-1.2h3.4c0.6,0,1.2,0.5,1.2,1.2V-60.4z M-992.4-72l25.5,2.3l0.1,0
		c0.6,0,1.2,0.5,1.2,1.2c0,0.6-0.5,1.1-1.1,1.2l-25.5-2.3l-1.6,0v-1.2c0-0.4-0.1-0.8-0.2-1.2H-992.4z M-1028.3-165.9
		c0-6,4.9-10.9,10.9-10.9h36.8c6,0,10.9,4.9,10.9,10.9l0,34.8c-1.6,0.3-2.7,1.7-2.7,3.4v0.9c0,1.7,1.2,3.1,2.7,3.4v4
		c0,0.6-0.5,1.2-1.2,1.2h-20.1h-16.1h-20.1c-0.6,0-1.2-0.5-1.2-1.2v-4c1.6-0.3,2.7-1.7,2.7-3.4v-0.9c0-1.7-1.2-3.1-2.7-3.4
		L-1028.3-165.9L-1028.3-165.9z M-993.3-115.9v4.7h-11.4v-4.7H-993.3z M-1038.1-125.6c-0.6,0-1.2-0.5-1.2-1.2v-0.9
		c0-0.6,0.5-1.2,1.2-1.2h9.1c0.6,0,1.2,0.5,1.2,1.2v0.9c0,0.6-0.5,1.2-1.2,1.2H-1038.1z M-1030.6-107.7v6.7c0,0.3,0.1,0.7,0.2,1
		c-0.3-0.1-0.5-0.2-0.8-0.5c-0.7-0.6-1-1.7-1-3.2c0-5.5-0.1-15.1-0.1-19.5h1.8v3.9c0,1.9,1.6,3.5,3.5,3.5h20.1v4.7h-20.1
		C-1029-111.2-1030.6-109.7-1030.6-107.7z M-996.1-60.4c0,0.6-0.5,1.2-1.2,1.2h-3.4c-0.6,0-1.2-0.5-1.2-1.2v-3.4
		c0-0.6,0.5-1.2,1.2-1.2h3.4c0.6,0,1.2,0.5,1.2,1.2V-60.4z M-996.1-68.5c0,0.6-0.5,1.2-1.2,1.2h-3.4c-0.6,0-1.2-0.5-1.2-1.2v-2.3
		c0-0.6,0.5-1.2,1.2-1.2h3.4c0.6,0,1.2,0.5,1.2,1.2V-68.5z M-1000.6-74.7v-22.9h3.2v22.9L-1000.6-74.7L-1000.6-74.7z M-969.7-101.1
		c0,0.6-0.5,1.2-1.2,1.2l-5.8,0v0h-18.3h-7.9h-18.3v0h-5.9c-0.6,0-1.1-0.5-1.1-1.2v-6.7c0-0.6,0.5-1.2,1.2-1.2h20.1h16.1h20.1
		c0.6,0,1.2,0.5,1.2,1.2L-969.7-101.1L-969.7-101.1z M-965.7-103.8c0,1.5-0.3,2.6-1,3.2c-0.3,0.2-0.5,0.4-0.8,0.5
		c0.1-0.3,0.2-0.7,0.2-1v-6.7c0-1.9-1.6-3.5-3.5-3.5h-20.1v-4.7h20.1c1.9,0,3.5-1.6,3.5-3.5v-3.9h1.8
		C-965.6-118.9-965.7-109.3-965.7-103.8z M-958.7-126.8c0,0.6-0.5,1.2-1.2,1.2h-9.1c-0.6,0-1.2-0.5-1.2-1.2v-0.9
		c0-0.6,0.5-1.2,1.2-1.2h9.1c0.6,0,1.2,0.5,1.2,1.2V-126.8z"/>
	<path d="M-1019.6-146.3h41.2c1.6,0,2.9-1.3,2.9-2.9l0-11.8c0-5.5-4.5-10-10-10h-26.9c-5.5,0-10,4.5-10,10v11.8
		C-1022.5-147.6-1021.2-146.3-1019.6-146.3z M-1020.1-161c0-4.2,3.4-7.6,7.6-7.6h26.9c4.2,0,7.6,3.4,7.6,7.6l0,11.8
		c0,0.3-0.2,0.5-0.5,0.5h-41.2c-0.3,0-0.5-0.2-0.5-0.5L-1020.1-161L-1020.1-161z"/>
</g>
</svg>
