<?xml version="1.0" encoding="utf-8"?>
<!-- Generator: Adobe Illustrator 19.1.0, SVG Export Plug-In . SVG Version: 6.00 Build 0)  -->
<svg version="1.1" id="Layer_1" xmlns="http://www.w3.org/2000/svg" xmlns:xlink="http://www.w3.org/1999/xlink" x="0px" y="0px"
	 viewBox="-1079 -9 160 160" style="enable-background:new -1079 -9 160 160;" xml:space="preserve">
<g>
	<path d="M-958.9,48.4v-9c0-6-3-11.7-7.9-15.2c-9.5-6.7-20.6-10.2-32.3-10.2c-11.7,0-22.8,3.5-32.3,10.2c-5,3.5-7.9,9.2-7.9,15.2v9
		l0,0c-6.3,0-11.4,5.1-11.4,11.5v36.4c0,5,3.2,9.3,7.7,10.8v8.3h3.8v1.9c-1.1,0-1.9,0.9-1.9,1.9c0,1.1,0.9,1.9,1.9,1.9h3.8
		c1.1,0,1.9-0.9,1.9-1.9c0-1.1-0.9-1.9-1.9-1.9v-1.9h3.8v-7.7h65.1v7.7h3.8v1.9c-1.1,0-1.9,0.9-1.9,1.9c0,1.1,0.9,1.9,1.9,1.9h3.8
		c1.1,0,1.9-0.9,1.9-1.9c0-1.1-0.9-1.9-1.9-1.9v-1.9h3.8v-8.3c4.5-1.6,7.7-5.8,7.7-10.8V59.9C-947.3,53.6-952.5,48.4-958.9,48.4z
		 M-1035.4,49.1v-9.7c0-4.8,2.4-9.3,6.3-12.1c8.8-6.2,19.2-9.5,30.1-9.5c10.8,0,21.2,3.3,30.1,9.5c3.9,2.8,6.3,7.3,6.3,12.1v9.7
		c-0.1,0-0.1,0.1-0.2,0.1c-0.5,0.2-1,0.4-1.4,0.6c0,0,0,0-0.1,0c-0.5,0.2-0.9,0.5-1.3,0.8c-0.1,0.1-0.2,0.1-0.2,0.2
		c-0.4,0.3-0.8,0.7-1.2,1c0,0-0.1,0.1-0.1,0.1c-0.4,0.4-0.7,0.8-1,1.2c0,0-0.1,0.1-0.1,0.1c-0.3,0.4-0.6,0.9-0.8,1.4
		c0,0.1,0,0.1-0.1,0.2c-0.2,0.5-0.4,1-0.6,1.5c0,0,0,0,0,0c-0.2,0.5-0.3,1-0.4,1.6c0,0.1,0,0.2-0.1,0.3c-0.1,0.6-0.1,1.1-0.1,1.7
		v11.5h-57.4V59.9c0-0.6-0.1-1.1-0.1-1.6c0-0.1,0-0.2-0.1-0.3c-0.1-0.5-0.2-1.1-0.4-1.6c0,0,0,0,0,0c-0.2-0.5-0.4-1-0.6-1.5
		c0-0.1,0-0.1-0.1-0.2c-0.2-0.5-0.5-1-0.8-1.4c0,0-0.1-0.1-0.1-0.1c-0.3-0.4-0.6-0.8-1-1.2c0,0-0.1-0.1-0.1-0.1
		c-0.4-0.4-0.8-0.7-1.2-1c-0.1-0.1-0.2-0.1-0.2-0.2c-0.4-0.3-0.9-0.6-1.3-0.9c0,0,0,0,0,0c-0.5-0.2-0.9-0.4-1.4-0.6
		C-1035.3,49.1-1035.4,49.1-1035.4,49.1z M-1027.8,80.9v-5.7h24.9l-3.4,4.6c-0.6,0.8-0.5,2,0.4,2.7c0.3,0.3,0.7,0.4,1.1,0.4
		c0.6,0,1.1-0.3,1.5-0.8l4.2-5.6l4.2,5.6c0.4,0.5,1,0.8,1.5,0.8c0.4,0,0.8-0.1,1.1-0.4c0.8-0.6,1-1.8,0.4-2.7l-3.4-4.6h24.8v5.7
		c0,4.2-3.4,7.7-7.7,7.7h-42.1C-1024.3,88.6-1027.8,85.2-1027.8,80.9z M-1035.4,111.6h-3.8v-3.8h3.8V111.6z M-958.8,111.6h-3.8v-3.8
		h3.8V111.6z M-951.2,96.3c0,4.2-3.4,7.7-7.7,7.7h-7.7h-65.1h-7.7c-4.2,0-7.6-3.4-7.6-7.7V59.9c0-4.2,3.4-7.7,7.6-7.7
		c0.5,0,1,0.1,1.5,0.2c0,0,0,0,0,0c0.5,0.1,0.9,0.2,1.3,0.4c0.1,0.1,0.2,0.1,0.4,0.2c0.3,0.1,0.6,0.3,0.9,0.5
		c0.2,0.1,0.3,0.2,0.4,0.3c0.2,0.2,0.5,0.3,0.7,0.6c0.1,0.1,0.3,0.3,0.4,0.4c0.2,0.2,0.3,0.4,0.5,0.6c0.1,0.2,0.2,0.3,0.3,0.5
		c0.1,0.2,0.2,0.4,0.4,0.7c0.1,0.2,0.2,0.4,0.3,0.6c0.1,0.3,0.2,0.6,0.3,0.8c0,0.2,0.1,0.3,0.1,0.5c0.1,0.5,0.2,0.9,0.2,1.4v11.5V81
		c0,6.3,5.1,11.5,11.5,11.5l0,0h42.1c6.3,0,11.5-5.1,11.5-11.5v-9.6V59.9c0-0.5,0.1-1,0.2-1.4c0-0.2,0.1-0.3,0.1-0.5
		c0.1-0.3,0.2-0.6,0.2-0.8c0.1-0.2,0.2-0.4,0.3-0.6c0.1-0.2,0.2-0.5,0.4-0.7c0.1-0.2,0.2-0.3,0.3-0.5c0.2-0.2,0.3-0.4,0.5-0.6
		c0.1-0.2,0.3-0.3,0.4-0.4c0.2-0.2,0.4-0.4,0.7-0.5c0.1-0.1,0.3-0.2,0.4-0.3c0.3-0.2,0.6-0.3,0.8-0.5c0.1-0.1,0.2-0.1,0.4-0.2
		c0.4-0.2,0.8-0.3,1.3-0.4c0,0,0.1,0,0.1,0c0.5-0.1,1-0.2,1.5-0.2c4.2,0,7.7,3.4,7.7,7.7L-951.2,96.3L-951.2,96.3z"/>
	<circle cx="-1016.3" cy="35" r="1.9"/>
	<circle cx="-1004.8" cy="35" r="1.9"/>
	<circle cx="-993.3" cy="35" r="1.9"/>
	<circle cx="-981.8" cy="35" r="1.9"/>
	<circle cx="-1016.3" cy="46.5" r="1.9"/>
	<circle cx="-1016.3" cy="58" r="1.9"/>
	<circle cx="-1010.5" cy="40.8" r="1.9"/>
	<circle cx="-999.1" cy="40.8" r="1.9"/>
	<circle cx="-1010.5" cy="52.2" r="1.9"/>
	<circle cx="-999.1" cy="52.2" r="1.9"/>
	<circle cx="-1004.8" cy="46.5" r="1.9"/>
	<circle cx="-993.3" cy="46.5" r="1.9"/>
	<circle cx="-1004.8" cy="58" r="1.9"/>
	<circle cx="-993.3" cy="58" r="1.9"/>
	<circle cx="-987.6" cy="40.8" r="1.9"/>
	<circle cx="-987.6" cy="52.2" r="1.9"/>
	<circle cx="-981.8" cy="46.5" r="1.9"/>
	<circle cx="-981.8" cy="58" r="1.9"/>
</g>
</svg>
