<?xml version="1.0" encoding="utf-8"?>
<!-- Generator: Adobe Illustrator 19.1.0, SVG Export Plug-In . SVG Version: 6.00 Build 0)  -->
<svg version="1.1" id="Layer_1" xmlns="http://www.w3.org/2000/svg" xmlns:xlink="http://www.w3.org/1999/xlink" x="0px" y="0px"
	 viewBox="-870 -198 160 160" style="enable-background:new -870 -198 160 160;" xml:space="preserve">
<g>
	<path d="M-731.8-111.9c-0.9,0-2.4-0.2-3.1-0.6c3.2-1.7,5.3-5,5.3-8.7c0-5.4-4.4-9.9-9.9-9.9c-2.9,0-5.4,1.3-7.2,3.2v-44.2
		c0-0.7-0.6-1.3-1.3-1.3h-92.3c-0.7,0-1.3,0.6-1.3,1.3v32.1c-4.4,0.8-7.7,4.7-7.7,9.3c0,3.3,1.8,6.4,4.6,8.1c0,0,0,0,0,0.1
		c-0.6,0.6-2.4,0.8-3.6,0.8c-1.5,0.2-4.4,1.5-4.4,5.6v8c0,0.2,0.1,1.8,1.4,2.9c0.4,0.4,1.1,0.7,2.1,0.8v8v16.8
		c0,0.7,0.6,1.3,1.3,1.3c0.7,0,1.3-0.6,1.3-1.3v-15.5h12.5v15.5c0,0.7,0.6,1.3,1.3,1.3s1.3-0.6,1.3-1.3v-16.8v-10.8h37
		c0.5,0.4,1,0.8,1.6,1.1c-0.7,0.5-2.2,0.7-3.4,0.7c-1.5,0.2-4.3,1.6-4.3,5.5v8c0,0.2,0.1,1.9,1.3,2.9c0.5,0.4,1.3,0.8,2.4,0.8
		c0,0,0,0,0.1,0v7.6V-64c0,0.7,0.6,1.3,1.3,1.3c0.7,0,1.3-0.6,1.3-1.3v-15.5h12.2V-64c0,0.7,0.6,1.3,1.3,1.3c0.7,0,1.3-0.6,1.3-1.3
		v-16.8v-7.6c1-0.1,1.7-0.4,2.2-0.8c1.3-1,1.5-2.7,1.5-3v-6.9c0.5,0.3,1.1,0.5,2,0.5c0,0,0.1,0,0.1,0v6.5V-77c0,0.7,0.6,1.3,1.3,1.3
		c0.7,0,1.3-0.6,1.3-1.3v-13.6h12.2V-77c0,0.7,0.6,1.3,1.3,1.3c0.7,0,1.3-0.6,1.3-1.3v-14.9v-6.5c1-0.1,1.7-0.4,2.1-0.7
		c1.4-1,1.6-2.7,1.6-3v-5.2h0.3c0,0.3-0.1,0.7-0.1,1.1l0,8.1c0,0.2,0.2,1.8,1.5,2.9c0.5,0.4,1.2,0.7,2.3,0.8v8.3v15.8
		c0,0.7,0.6,1.3,1.3,1.3c0.7,0,1.3-0.6,1.3-1.3V-85h12.3v14.5c0,0.7,0.6,1.3,1.3,1.3c0.7,0,1.3-0.6,1.3-1.3v-15.8v-8.3
		c1.1,0,1.9-0.4,2.3-0.8c1.3-1.1,1.4-2.7,1.4-3v-8C-727.2-110.4-730.1-111.7-731.8-111.9z M-746.7-114.6c0.7,0.8,1.6,1.5,2.5,2
		c-0.6,0.4-1.6,0.6-2.5,0.6V-114.6z M-832.4-118.4c-0.1,0-0.2,0-0.3,0c-0.1,0-0.1,0-0.2,0c-0.7,0-1.3,0.6-1.3,1.3v19.2h-12.5v-15.5
		c0-0.7-0.6-1.3-1.3-1.3c-0.7,0-1.3,0.6-1.3,1.3v6.2c-0.2,0-0.3-0.1-0.4-0.2c-0.4-0.3-0.4-0.9-0.4-0.9v-8c0-2.5,1.8-2.9,1.9-2.9
		c0.4,0,3.7,0.1,5.3-1.5c0.3-0.3,0.5-0.6,0.6-0.9c0.8,0.2,1.6,0.4,2.4,0.4c0.8,0,1.6-0.1,2.4-0.3c0.2,0.3,0.3,0.6,0.6,0.9
		c1.6,1.6,5,1.5,5.3,1.5c0.2,0,5,0,6.7-3.2l1.4,0.2c-0.4,1.3-1,2.3-2,3C-828.1-117.3-832.4-118.4-832.4-118.4z M-778.8-91.2
		c-0.1,0.1-0.3,0.2-0.6,0.2v-5.6c0-0.7-0.6-1.3-1.3-1.3c-0.7,0-1.3,0.6-1.3,1.3v14.5h-12.2v-14.5c0-0.7-0.6-1.3-1.3-1.3
		c-0.7,0-1.3,0.6-1.3,1.3v5.6c-0.3,0-0.6,0-0.8-0.2c-0.3-0.3-0.4-0.8-0.4-0.9v-8c0-2.5,1.7-2.9,1.8-2.9c0.4,0,3.6,0.1,5.2-1.5
		c0.3-0.2,0.4-0.5,0.6-0.8c0.7,0.1,1.4,0.2,2.1,0.2c0.7,0,1.3-0.1,2-0.2c0.1,0.3,0.3,0.5,0.5,0.8c1.6,1.6,4.8,1.6,5.3,1.5
		c0.4,0,2.2,0.4,2.2,2.9l0,7.9C-778.3-92.2-778.4-91.5-778.8-91.2z M-777.3-104.3c-1-0.9-2.2-1.3-3.1-1.4c-1,0-2.5-0.2-3.3-0.6
		c0.6-0.3,1.2-0.7,1.7-1.1h4.6V-104.3z M-755.5-101.3c-0.1,0.1-0.3,0.2-0.5,0.2v-5.8c0-0.7-0.6-1.3-1.3-1.3c-0.7,0-1.3,0.6-1.3,1.3
		v13.6h-12.2v-13.6c0-0.7-0.6-1.3-1.3-1.3c-0.7,0-1.3,0.6-1.3,1.3v5.8c-0.3,0-0.6,0-0.8-0.2c-0.3-0.2-0.4-0.8-0.4-0.9v-8
		c0-1.2,0.4-1.9,0.9-2.4c1.1,1.1,3.3,2.1,7.7,2.5c0,0,0.7,0.1,1.7,0.1c0,0,0,0,0,0c1.9,0,4.7-0.3,6.9-1.9c0.4-0.2,0.7-0.6,0.9-1.1
		c0.7,0.3,1.7,1,1.7,2.8l0,7.8C-755-102.3-755.1-101.6-755.5-101.3z M-750.8-110.2l-1.5,0c0-3.3-2.1-4.8-3.9-5.3
		c0.2-2.7-0.1-6.7-0.9-11.9c0-3.5-2-6.4-4.8-8c0,0,0-0.1,0-0.1c0-0.7-0.6-1.3-1.3-1.3H-788c-0.7,0-1.3,0.6-1.3,1.3
		c0,0.7,0.6,1.3,1.3,1.3h15.7c-1.1,1-1.8,2.3-2.3,3.7H-788c-0.7,0-1.3,0.6-1.3,1.3s0.6,1.3,1.3,1.3h13c0,0,0,0,0,0.1l0.1,12.7
		c-1.1,0.7-2.5,2.1-2.5,4.9v0.1h-2.4c0.8-1.4,1.4-3.1,1.4-4.9c0-5.4-4.4-9.9-9.9-9.9c-5.4,0-9.9,4.4-9.9,9.9c0,1.8,0.5,3.4,1.4,4.9
		h-34.8v-5.5c0.5,0.1,1.1,0.1,1.8,0.1c1.8,0,4-0.3,5.9-1.6c1.9-1.3,3.1-3.4,3.4-6.2c0-0.3-0.1-0.7-0.3-1c-0.2-0.3-0.5-0.4-0.9-0.5
		l-3.8-0.4c-0.6-0.1-1.3,0.4-1.4,1c-0.6,2.2-4.6,2.3-4.6,2.3c-1,0.1-2.8-0.2-3.4-0.8c2.8-1.7,4.6-4.7,4.6-8.1c0-4.9-3.8-8.9-8.6-9.4
		v-30.7h89.6v59.4C-749.9-111.1-750.4-110.7-750.8-110.2z M-729.8-98.4c0,0-0.1,0.6-0.4,1c-0.2,0.1-0.4,0.2-0.7,0.2v-5.9
		c0-0.7-0.6-1.3-1.3-1.3c-0.7,0-1.3,0.6-1.3,1.3v15.5h-12.3v-15.5c0-0.7-0.6-1.3-1.3-1.3c-0.7,0-1.3,0.6-1.3,1.3v5.9
		c-0.2,0-0.5-0.1-0.6-0.2c-0.4-0.3-0.5-0.9-0.5-0.9v-8c0-2.5,1.8-2.9,2-2.9c0.4,0,3.7,0.1,5.4-1.5c0.2-0.2,0.4-0.5,0.6-0.8
		c0.7,0.2,1.4,0.3,2.1,0.3c0.7,0,1.3-0.1,1.9-0.2c0.2,0.3,0.3,0.6,0.5,0.8c1.6,1.6,4.9,1.5,5.1,1.5c0.1,0,2.1,0.3,2.1,2.9
		L-729.8-98.4L-729.8-98.4z"/>
	<path d="M-800.1-162.2h-27.4c-0.7,0-1.3,0.6-1.3,1.3c0,0.7,0.6,1.3,1.3,1.3h27.4c0.7,0,1.3-0.6,1.3-1.3
		C-798.8-161.6-799.4-162.2-800.1-162.2z"/>
	<path d="M-842-88.5v8.5c0,0.7,0.6,1.3,1.3,1.3c0.7,0,1.3-0.6,1.3-1.3v-8.5c0-0.7-0.6-1.3-1.3-1.3C-841.4-89.8-842-89.2-842-88.5z"
		/>
	<path d="M-789.4-72.4v8.5c0,0.7,0.6,1.3,1.3,1.3c0.7,0,1.3-0.6,1.3-1.3v-8.5c0-0.7-0.6-1.3-1.3-1.3
		C-788.8-73.8-789.4-73.2-789.4-72.4z"/>
	<path d="M-741.2-78.8v8.5c0,0.7,0.6,1.3,1.3,1.3c0.7,0,1.3-0.6,1.3-1.3v-8.5c0-0.7-0.6-1.3-1.3-1.3
		C-740.6-80.1-741.2-79.5-741.2-78.8z"/>
	<path d="M-766.2-84.5v7.3c0,0.7,0.6,1.3,1.3,1.3c0.7,0,1.3-0.6,1.3-1.3v-7.3c0-0.7-0.6-1.3-1.3-1.3
		C-765.6-85.8-766.2-85.2-766.2-84.5z"/>
	<path d="M-827.5-153.2h19.3c0.7,0,1.3-0.6,1.3-1.3c0-0.7-0.6-1.3-1.3-1.3h-19.3c-0.7,0-1.3,0.6-1.3,1.3
		C-828.8-153.8-828.2-153.2-827.5-153.2z"/>
	<path d="M-827.5-146.9h24.7c0.7,0,1.3-0.6,1.3-1.3c0-0.7-0.6-1.3-1.3-1.3h-24.7c-0.7,0-1.3,0.6-1.3,1.3
		C-828.8-147.4-828.2-146.9-827.5-146.9z"/>
	<path d="M-827.5-140.5h22c0.7,0,1.3-0.6,1.3-1.3c0-0.7-0.6-1.3-1.3-1.3h-22c-0.7,0-1.3,0.6-1.3,1.3
		C-828.8-141.1-828.2-140.5-827.5-140.5z"/>
	<path d="M-827.5-134.2h24.7c0.7,0,1.3-0.6,1.3-1.3s-0.6-1.3-1.3-1.3h-24.7c-0.7,0-1.3,0.6-1.3,1.3S-828.2-134.2-827.5-134.2z"/>
	<path d="M-800.1-130.5h-27.4c-0.7,0-1.3,0.6-1.3,1.3s0.6,1.3,1.3,1.3h27.4c0.7,0,1.3-0.6,1.3-1.3
		C-798.8-129.9-799.4-130.5-800.1-130.5z"/>
	<path d="M-760.6-162.2H-788c-0.7,0-1.3,0.6-1.3,1.3c0,0.7,0.6,1.3,1.3,1.3h27.4c0.7,0,1.3-0.6,1.3-1.3
		C-759.2-161.6-759.8-162.2-760.6-162.2z"/>
	<path d="M-788-153.2h19.3c0.7,0,1.3-0.6,1.3-1.3c0-0.7-0.6-1.3-1.3-1.3H-788c-0.7,0-1.3,0.6-1.3,1.3
		C-789.3-153.8-788.7-153.2-788-153.2z"/>
	<path d="M-763.3-149.5H-788c-0.7,0-1.3,0.6-1.3,1.3c0,0.7,0.6,1.3,1.3,1.3h24.7c0.7,0,1.3-0.6,1.3-1.3
		C-762-148.9-762.5-149.5-763.3-149.5z"/>
	<path d="M-766-143.1h-22c-0.7,0-1.3,0.6-1.3,1.3c0,0.7,0.6,1.3,1.3,1.3h22c0.7,0,1.3-0.6,1.3-1.3
		C-764.7-142.6-765.3-143.1-766-143.1z"/>
</g>
</svg>
