<?xml version="1.0" encoding="utf-8"?>
<!-- Generator: Adobe Illustrator 19.1.0, SVG Export Plug-In . SVG Version: 6.00 Build 0)  -->
<svg version="1.1" id="Layer_1" xmlns="http://www.w3.org/2000/svg" xmlns:xlink="http://www.w3.org/1999/xlink" x="0px" y="0px"
	 viewBox="-870 -9 160 160" style="enable-background:new -870 -9 160 160;" xml:space="preserve">
<g>
	<path d="M-735.2,128.1h-109.5c-1.4,0-2.4-1-2.4-2.4V16.2c0-1.4,1-2.4,2.4-2.4h109.5c1.4,0,2.4,1,2.4,2.4v109.5
		C-732.9,127.2-733.8,128.1-735.2,128.1z M-842.4,123.4h104.8V18.6h-104.8V123.4z"/>
	<path d="M-775,128.1h-29.8c-1.4,0-2.4-1-2.4-2.4V83.6c0-1.4,1-2.4,2.4-2.4h29.8c1.4,0,2.4,1,2.4,2.4v42.1
		C-772.6,127.2-773.6,128.1-775,128.1z M-802.4,123.4h25V86h-25V123.4z"/>
	<path d="M-821.9,37.4h-9.3c-1.4,0-2.4-1-2.4-2.4c0-1.4,1-2.4,2.4-2.4h9.3c1.4,0,2.4,1,2.4,2.4C-819.5,36.5-820.5,37.4-821.9,37.4z"
		/>
	<path d="M-821.9,61.2h-9.3c-1.4,0-2.4-1-2.4-2.4c0-1.4,1-2.4,2.4-2.4h9.3c1.4,0,2.4,1,2.4,2.4C-819.5,60.3-820.5,61.2-821.9,61.2z"
		/>
	<path d="M-821.9,84.8h-9.3c-1.4,0-2.4-1-2.4-2.4c0-1.4,1-2.4,2.4-2.4h9.3c1.4,0,2.4,1,2.4,2.4C-819.5,83.9-820.5,84.8-821.9,84.8z"
		/>
	<path d="M-821.9,108.6h-9.3c-1.4,0-2.4-1-2.4-2.4c0-1.4,1-2.4,2.4-2.4h9.3c1.4,0,2.4,1,2.4,2.4
		C-819.5,107.7-820.5,108.6-821.9,108.6z"/>
	<path d="M-749.5,37.4h-9.5c-1.4,0-2.4-1-2.4-2.4c0-1.4,1-2.4,2.4-2.4h9.5c1.4,0,2.4,1,2.4,2.4C-747.1,36.5-748.1,37.4-749.5,37.4z"
		/>
	<path d="M-749.5,61.2h-9.5c-1.4,0-2.4-1-2.4-2.4c0-1.4,1-2.4,2.4-2.4h9.5c1.4,0,2.4,1,2.4,2.4C-747.1,60.3-748.1,61.2-749.5,61.2z"
		/>
	<path d="M-785.2,37.4h-9.5c-1.4,0-2.4-1-2.4-2.4c0-1.4,1-2.4,2.4-2.4h9.5c1.4,0,2.4,1,2.4,2.4C-782.9,36.5-783.8,37.4-785.2,37.4z"
		/>
	<path d="M-785.2,61.2h-9.5c-1.4,0-2.4-1-2.4-2.4c0-1.4,1-2.4,2.4-2.4h9.5c1.4,0,2.4,1,2.4,2.4C-782.9,60.3-783.8,61.2-785.2,61.2z"
		/>
	<path d="M-749.5,84.8h-9.5c-1.4,0-2.4-1-2.4-2.4c0-1.4,1-2.4,2.4-2.4h9.5c1.4,0,2.4,1,2.4,2.4C-747.1,83.9-748.1,84.8-749.5,84.8z"
		/>
	<path d="M-749.5,108.6h-9.5c-1.4,0-2.4-1-2.4-2.4c0-1.4,1-2.4,2.4-2.4h9.5c1.4,0,2.4,1,2.4,2.4
		C-747.1,107.7-748.1,108.6-749.5,108.6z"/>
</g>
</svg>
